<svg preserveAspectRatio="none" overflow="visible" style="display: block;" width="28.9082" height="30.0729" viewBox="0 0 28.9082 30.0729" fill="none" xmlns="http://www.w3.org/2000/svg">
<g id="Vector">
<path d="M23.5297 0C23.069 0 22.6367 0.226216 22.3739 0.604463L12.2051 15.2462C11.7106 15.9587 11.4486 16.7949 11.4486 17.6622V28.657C11.4486 29.4392 12.0824 30.0729 12.8646 30.0729H16.1671C16.9493 30.0729 17.583 29.4392 17.583 28.657V18.7796C17.583 18.4389 17.6874 18.1064 17.8807 17.8271L28.6429 2.31436C29.3206 1.33715 28.6218 0 27.4321 0H23.5297Z" fill="#D9D9D9"/>
<path d="M11.7735 8.09797L6.58607 0.626443C6.31314 0.233543 5.86621 0 5.38813 0H1.46095C0.283167 0 -0.409218 1.32524 0.263934 2.29146L5.46506 9.76299C5.73799 10.155 6.18492 10.3885 6.66208 10.3885H10.5755C11.7533 10.3885 12.4448 9.06511 11.7735 8.09797Z" fill="#D9D9D9"/>
</g>
</svg>
